<mxfile host="app.diagrams.net" agent="Mozilla/5.0 (Macintosh; Intel Mac OS X 10_15_7) AppleWebKit/605.1.15 (KHTML, like Gecko) Version/18.2 Safari/605.1.15" version="26.0.16">
  <diagram id="R2lEEEUBdFMjLlhIrx00" name="Page-1">
    <mxGraphModel dx="677" dy="470" grid="1" gridSize="10" guides="1" tooltips="1" connect="1" arrows="1" fold="1" page="1" pageScale="1" pageWidth="1654" pageHeight="1169" math="0" shadow="0" extFonts="Permanent Marker^https://fonts.googleapis.com/css?family=Permanent+Marker">
      <root>
        <mxCell id="0" />
        <mxCell id="1" parent="0" />
        <mxCell id="8IT-xfEcom7HQ6RDg2mn-1" value="Restaurant" style="rounded=0;whiteSpace=wrap;html=1;" vertex="1" parent="1">
          <mxGeometry x="290" y="140" width="120" height="60" as="geometry" />
        </mxCell>
        <mxCell id="8IT-xfEcom7HQ6RDg2mn-5" value="&lt;u&gt;restaurant_id&lt;/u&gt;" style="ellipse;whiteSpace=wrap;html=1;" vertex="1" parent="1">
          <mxGeometry x="200" y="80" width="75" height="50" as="geometry" />
        </mxCell>
        <mxCell id="8IT-xfEcom7HQ6RDg2mn-8" value="" style="endArrow=none;html=1;rounded=0;entryX=1;entryY=1;entryDx=0;entryDy=0;" edge="1" parent="1" target="8IT-xfEcom7HQ6RDg2mn-5">
          <mxGeometry width="50" height="50" relative="1" as="geometry">
            <mxPoint x="320" y="140" as="sourcePoint" />
            <mxPoint x="460" y="180" as="targetPoint" />
          </mxGeometry>
        </mxCell>
        <mxCell id="8IT-xfEcom7HQ6RDg2mn-9" value="name" style="ellipse;whiteSpace=wrap;html=1;" vertex="1" parent="1">
          <mxGeometry x="275" y="30" width="75" height="50" as="geometry" />
        </mxCell>
        <mxCell id="8IT-xfEcom7HQ6RDg2mn-10" value="location" style="ellipse;whiteSpace=wrap;html=1;" vertex="1" parent="1">
          <mxGeometry x="360" y="45" width="75" height="50" as="geometry" />
        </mxCell>
        <mxCell id="8IT-xfEcom7HQ6RDg2mn-11" value="" style="endArrow=none;html=1;rounded=0;entryX=0.5;entryY=1;entryDx=0;entryDy=0;exitX=0.333;exitY=0;exitDx=0;exitDy=0;exitPerimeter=0;" edge="1" parent="1" source="8IT-xfEcom7HQ6RDg2mn-1" target="8IT-xfEcom7HQ6RDg2mn-9">
          <mxGeometry width="50" height="50" relative="1" as="geometry">
            <mxPoint x="360" y="150" as="sourcePoint" />
            <mxPoint x="410" y="100" as="targetPoint" />
          </mxGeometry>
        </mxCell>
        <mxCell id="8IT-xfEcom7HQ6RDg2mn-12" value="" style="endArrow=none;html=1;rounded=0;entryX=0.5;entryY=1;entryDx=0;entryDy=0;exitX=0.5;exitY=0;exitDx=0;exitDy=0;" edge="1" parent="1" source="8IT-xfEcom7HQ6RDg2mn-1" target="8IT-xfEcom7HQ6RDg2mn-10">
          <mxGeometry width="50" height="50" relative="1" as="geometry">
            <mxPoint x="360" y="151" as="sourcePoint" />
            <mxPoint x="390.9834957055033" y="73.67766952966451" as="targetPoint" />
          </mxGeometry>
        </mxCell>
        <mxCell id="8IT-xfEcom7HQ6RDg2mn-13" value="open hour" style="ellipse;whiteSpace=wrap;html=1;" vertex="1" parent="1">
          <mxGeometry x="180" y="145" width="75" height="50" as="geometry" />
        </mxCell>
        <mxCell id="8IT-xfEcom7HQ6RDg2mn-14" value="" style="endArrow=none;html=1;rounded=0;exitX=1;exitY=0.5;exitDx=0;exitDy=0;entryX=0;entryY=0.5;entryDx=0;entryDy=0;" edge="1" parent="1" source="8IT-xfEcom7HQ6RDg2mn-13" target="8IT-xfEcom7HQ6RDg2mn-1">
          <mxGeometry width="50" height="50" relative="1" as="geometry">
            <mxPoint x="300" y="200" as="sourcePoint" />
            <mxPoint x="350" y="150" as="targetPoint" />
          </mxGeometry>
        </mxCell>
        <mxCell id="8IT-xfEcom7HQ6RDg2mn-16" value="open time" style="ellipse;whiteSpace=wrap;html=1;" vertex="1" parent="1">
          <mxGeometry x="80" y="95" width="75" height="50" as="geometry" />
        </mxCell>
        <mxCell id="8IT-xfEcom7HQ6RDg2mn-17" value="close time" style="ellipse;whiteSpace=wrap;html=1;" vertex="1" parent="1">
          <mxGeometry x="80" y="195" width="75" height="50" as="geometry" />
        </mxCell>
        <mxCell id="8IT-xfEcom7HQ6RDg2mn-18" value="" style="endArrow=none;html=1;rounded=0;exitX=1;exitY=0.5;exitDx=0;exitDy=0;entryX=0;entryY=0.5;entryDx=0;entryDy=0;" edge="1" parent="1" source="8IT-xfEcom7HQ6RDg2mn-16" target="8IT-xfEcom7HQ6RDg2mn-13">
          <mxGeometry width="50" height="50" relative="1" as="geometry">
            <mxPoint x="180" y="200" as="sourcePoint" />
            <mxPoint x="230" y="150" as="targetPoint" />
          </mxGeometry>
        </mxCell>
        <mxCell id="8IT-xfEcom7HQ6RDg2mn-19" value="" style="endArrow=none;html=1;rounded=0;exitX=1;exitY=0.5;exitDx=0;exitDy=0;entryX=0;entryY=0.5;entryDx=0;entryDy=0;" edge="1" parent="1" source="8IT-xfEcom7HQ6RDg2mn-17" target="8IT-xfEcom7HQ6RDg2mn-13">
          <mxGeometry width="50" height="50" relative="1" as="geometry">
            <mxPoint x="180" y="200" as="sourcePoint" />
            <mxPoint x="230" y="150" as="targetPoint" />
          </mxGeometry>
        </mxCell>
        <mxCell id="8IT-xfEcom7HQ6RDg2mn-20" value="cuisine type" style="ellipse;whiteSpace=wrap;html=1;" vertex="1" parent="1">
          <mxGeometry x="200" y="230" width="75" height="50" as="geometry" />
        </mxCell>
        <mxCell id="8IT-xfEcom7HQ6RDg2mn-21" value="" style="endArrow=none;html=1;rounded=0;exitX=1;exitY=0;exitDx=0;exitDy=0;entryX=0.25;entryY=1;entryDx=0;entryDy=0;" edge="1" parent="1" source="8IT-xfEcom7HQ6RDg2mn-20" target="8IT-xfEcom7HQ6RDg2mn-1">
          <mxGeometry width="50" height="50" relative="1" as="geometry">
            <mxPoint x="310" y="240" as="sourcePoint" />
            <mxPoint x="360" y="190" as="targetPoint" />
          </mxGeometry>
        </mxCell>
        <mxCell id="8IT-xfEcom7HQ6RDg2mn-35" value="Deliver Driver" style="rounded=0;whiteSpace=wrap;html=1;" vertex="1" parent="1">
          <mxGeometry x="852.5" y="130" width="120" height="60" as="geometry" />
        </mxCell>
        <mxCell id="8IT-xfEcom7HQ6RDg2mn-36" value="&lt;u&gt;deliver_id&lt;/u&gt;" style="ellipse;whiteSpace=wrap;html=1;" vertex="1" parent="1">
          <mxGeometry x="965" y="45" width="75" height="50" as="geometry" />
        </mxCell>
        <mxCell id="8IT-xfEcom7HQ6RDg2mn-37" value="" style="endArrow=none;html=1;rounded=0;entryX=0.5;entryY=1;entryDx=0;entryDy=0;exitX=0.75;exitY=0;exitDx=0;exitDy=0;" edge="1" parent="1" target="8IT-xfEcom7HQ6RDg2mn-36" source="8IT-xfEcom7HQ6RDg2mn-35">
          <mxGeometry width="50" height="50" relative="1" as="geometry">
            <mxPoint x="835" y="140" as="sourcePoint" />
            <mxPoint x="975" y="180" as="targetPoint" />
          </mxGeometry>
        </mxCell>
        <mxCell id="8IT-xfEcom7HQ6RDg2mn-38" value="name" style="ellipse;whiteSpace=wrap;html=1;" vertex="1" parent="1">
          <mxGeometry x="790" y="45" width="75" height="50" as="geometry" />
        </mxCell>
        <mxCell id="8IT-xfEcom7HQ6RDg2mn-39" value="phone number" style="ellipse;whiteSpace=wrap;html=1;" vertex="1" parent="1">
          <mxGeometry x="875" y="45" width="75" height="50" as="geometry" />
        </mxCell>
        <mxCell id="8IT-xfEcom7HQ6RDg2mn-40" value="" style="endArrow=none;html=1;rounded=0;entryX=0.5;entryY=1;entryDx=0;entryDy=0;exitX=0.333;exitY=0;exitDx=0;exitDy=0;exitPerimeter=0;" edge="1" parent="1" source="8IT-xfEcom7HQ6RDg2mn-35" target="8IT-xfEcom7HQ6RDg2mn-38">
          <mxGeometry width="50" height="50" relative="1" as="geometry">
            <mxPoint x="875" y="150" as="sourcePoint" />
            <mxPoint x="925" y="100" as="targetPoint" />
          </mxGeometry>
        </mxCell>
        <mxCell id="8IT-xfEcom7HQ6RDg2mn-41" value="" style="endArrow=none;html=1;rounded=0;entryX=0.5;entryY=1;entryDx=0;entryDy=0;exitX=0.5;exitY=0;exitDx=0;exitDy=0;" edge="1" parent="1" source="8IT-xfEcom7HQ6RDg2mn-35" target="8IT-xfEcom7HQ6RDg2mn-39">
          <mxGeometry width="50" height="50" relative="1" as="geometry">
            <mxPoint x="875" y="151" as="sourcePoint" />
            <mxPoint x="905.9834957055033" y="73.67766952966451" as="targetPoint" />
          </mxGeometry>
        </mxCell>
        <mxCell id="8IT-xfEcom7HQ6RDg2mn-43" value="" style="endArrow=none;html=1;rounded=0;exitX=1;exitY=0.5;exitDx=0;exitDy=0;entryX=1;entryY=0.5;entryDx=0;entryDy=0;" edge="1" parent="1" source="8IT-xfEcom7HQ6RDg2mn-50" target="8IT-xfEcom7HQ6RDg2mn-35">
          <mxGeometry width="50" height="50" relative="1" as="geometry">
            <mxPoint x="770" y="170" as="sourcePoint" />
            <mxPoint x="865" y="150" as="targetPoint" />
          </mxGeometry>
        </mxCell>
        <mxCell id="8IT-xfEcom7HQ6RDg2mn-48" value="vehicle type" style="ellipse;whiteSpace=wrap;html=1;" vertex="1" parent="1">
          <mxGeometry x="1047.5" y="180" width="75" height="50" as="geometry" />
        </mxCell>
        <mxCell id="8IT-xfEcom7HQ6RDg2mn-49" value="" style="endArrow=none;html=1;rounded=0;exitX=0;exitY=0;exitDx=0;exitDy=0;entryX=1;entryY=0.75;entryDx=0;entryDy=0;" edge="1" parent="1" source="8IT-xfEcom7HQ6RDg2mn-48" target="8IT-xfEcom7HQ6RDg2mn-35">
          <mxGeometry width="50" height="50" relative="1" as="geometry">
            <mxPoint x="825" y="240" as="sourcePoint" />
            <mxPoint x="875" y="190" as="targetPoint" />
          </mxGeometry>
        </mxCell>
        <mxCell id="8IT-xfEcom7HQ6RDg2mn-50" value="spoke language" style="ellipse;shape=doubleEllipse;whiteSpace=wrap;html=1;" vertex="1" parent="1">
          <mxGeometry x="1022.5" y="95" width="100" height="60" as="geometry" />
        </mxCell>
        <mxCell id="8IT-xfEcom7HQ6RDg2mn-52" value="Customer" style="rounded=0;whiteSpace=wrap;html=1;" vertex="1" parent="1">
          <mxGeometry x="980" y="375" width="120" height="60" as="geometry" />
        </mxCell>
        <mxCell id="8IT-xfEcom7HQ6RDg2mn-53" value="&lt;u&gt;customer_id&lt;/u&gt;" style="ellipse;whiteSpace=wrap;html=1;" vertex="1" parent="1">
          <mxGeometry x="1092.5" y="290" width="75" height="50" as="geometry" />
        </mxCell>
        <mxCell id="8IT-xfEcom7HQ6RDg2mn-54" value="" style="endArrow=none;html=1;rounded=0;entryX=0.5;entryY=1;entryDx=0;entryDy=0;exitX=0.75;exitY=0;exitDx=0;exitDy=0;" edge="1" parent="1" source="8IT-xfEcom7HQ6RDg2mn-52" target="8IT-xfEcom7HQ6RDg2mn-53">
          <mxGeometry width="50" height="50" relative="1" as="geometry">
            <mxPoint x="962.5" y="385" as="sourcePoint" />
            <mxPoint x="1102.5" y="425" as="targetPoint" />
          </mxGeometry>
        </mxCell>
        <mxCell id="8IT-xfEcom7HQ6RDg2mn-55" value="name" style="ellipse;whiteSpace=wrap;html=1;" vertex="1" parent="1">
          <mxGeometry x="920" y="290" width="75" height="50" as="geometry" />
        </mxCell>
        <mxCell id="8IT-xfEcom7HQ6RDg2mn-56" value="phone number" style="ellipse;whiteSpace=wrap;html=1;" vertex="1" parent="1">
          <mxGeometry x="1002.5" y="290" width="75" height="50" as="geometry" />
        </mxCell>
        <mxCell id="8IT-xfEcom7HQ6RDg2mn-57" value="" style="endArrow=none;html=1;rounded=0;entryX=0.5;entryY=1;entryDx=0;entryDy=0;exitX=0.333;exitY=0;exitDx=0;exitDy=0;exitPerimeter=0;" edge="1" parent="1" source="8IT-xfEcom7HQ6RDg2mn-52" target="8IT-xfEcom7HQ6RDg2mn-55">
          <mxGeometry width="50" height="50" relative="1" as="geometry">
            <mxPoint x="1002.5" y="395" as="sourcePoint" />
            <mxPoint x="1052.5" y="345" as="targetPoint" />
          </mxGeometry>
        </mxCell>
        <mxCell id="8IT-xfEcom7HQ6RDg2mn-58" value="" style="endArrow=none;html=1;rounded=0;entryX=0.5;entryY=1;entryDx=0;entryDy=0;exitX=0.5;exitY=0;exitDx=0;exitDy=0;" edge="1" parent="1" source="8IT-xfEcom7HQ6RDg2mn-52" target="8IT-xfEcom7HQ6RDg2mn-56">
          <mxGeometry width="50" height="50" relative="1" as="geometry">
            <mxPoint x="1002.5" y="396" as="sourcePoint" />
            <mxPoint x="1033.4834957055032" y="318.6776695296645" as="targetPoint" />
          </mxGeometry>
        </mxCell>
        <mxCell id="8IT-xfEcom7HQ6RDg2mn-59" value="" style="endArrow=none;html=1;rounded=0;exitX=1;exitY=0.5;exitDx=0;exitDy=0;entryX=1;entryY=0.5;entryDx=0;entryDy=0;" edge="1" parent="1" source="8IT-xfEcom7HQ6RDg2mn-62" target="8IT-xfEcom7HQ6RDg2mn-52">
          <mxGeometry width="50" height="50" relative="1" as="geometry">
            <mxPoint x="897.5" y="415" as="sourcePoint" />
            <mxPoint x="992.5" y="395" as="targetPoint" />
          </mxGeometry>
        </mxCell>
        <mxCell id="8IT-xfEcom7HQ6RDg2mn-60" value="address" style="ellipse;whiteSpace=wrap;html=1;" vertex="1" parent="1">
          <mxGeometry x="1127.5" y="425" width="75" height="50" as="geometry" />
        </mxCell>
        <mxCell id="8IT-xfEcom7HQ6RDg2mn-61" value="" style="endArrow=none;html=1;rounded=0;exitX=0;exitY=0;exitDx=0;exitDy=0;entryX=1;entryY=0.75;entryDx=0;entryDy=0;" edge="1" parent="1" source="8IT-xfEcom7HQ6RDg2mn-60" target="8IT-xfEcom7HQ6RDg2mn-52">
          <mxGeometry width="50" height="50" relative="1" as="geometry">
            <mxPoint x="952.5" y="485" as="sourcePoint" />
            <mxPoint x="1002.5" y="435" as="targetPoint" />
          </mxGeometry>
        </mxCell>
        <mxCell id="8IT-xfEcom7HQ6RDg2mn-62" value="payment_method" style="ellipse;shape=doubleEllipse;whiteSpace=wrap;html=1;" vertex="1" parent="1">
          <mxGeometry x="1150" y="340" width="117.5" height="65" as="geometry" />
        </mxCell>
        <mxCell id="8IT-xfEcom7HQ6RDg2mn-63" value="country" style="ellipse;whiteSpace=wrap;html=1;" vertex="1" parent="1">
          <mxGeometry x="1065" y="485" width="75" height="50" as="geometry" />
        </mxCell>
        <mxCell id="8IT-xfEcom7HQ6RDg2mn-64" value="city" style="ellipse;whiteSpace=wrap;html=1;" vertex="1" parent="1">
          <mxGeometry x="1165" y="485" width="75" height="50" as="geometry" />
        </mxCell>
        <mxCell id="8IT-xfEcom7HQ6RDg2mn-65" value="postcode" style="ellipse;whiteSpace=wrap;html=1;" vertex="1" parent="1">
          <mxGeometry x="1227.5" y="425" width="75" height="50" as="geometry" />
        </mxCell>
        <mxCell id="8IT-xfEcom7HQ6RDg2mn-66" value="" style="endArrow=none;html=1;rounded=0;exitX=0.5;exitY=0;exitDx=0;exitDy=0;entryX=0;entryY=1;entryDx=0;entryDy=0;" edge="1" parent="1" source="8IT-xfEcom7HQ6RDg2mn-63" target="8IT-xfEcom7HQ6RDg2mn-60">
          <mxGeometry width="50" height="50" relative="1" as="geometry">
            <mxPoint x="1147.5" y="455" as="sourcePoint" />
            <mxPoint x="1197.5" y="405" as="targetPoint" />
          </mxGeometry>
        </mxCell>
        <mxCell id="8IT-xfEcom7HQ6RDg2mn-67" value="" style="endArrow=none;html=1;rounded=0;exitX=0.5;exitY=0;exitDx=0;exitDy=0;entryX=1;entryY=1;entryDx=0;entryDy=0;" edge="1" parent="1" source="8IT-xfEcom7HQ6RDg2mn-64" target="8IT-xfEcom7HQ6RDg2mn-60">
          <mxGeometry width="50" height="50" relative="1" as="geometry">
            <mxPoint x="1147.5" y="455" as="sourcePoint" />
            <mxPoint x="1197.5" y="405" as="targetPoint" />
          </mxGeometry>
        </mxCell>
        <mxCell id="8IT-xfEcom7HQ6RDg2mn-68" value="" style="endArrow=none;html=1;rounded=0;exitX=1;exitY=0.5;exitDx=0;exitDy=0;entryX=0;entryY=0.5;entryDx=0;entryDy=0;" edge="1" parent="1" source="8IT-xfEcom7HQ6RDg2mn-60" target="8IT-xfEcom7HQ6RDg2mn-65">
          <mxGeometry width="50" height="50" relative="1" as="geometry">
            <mxPoint x="1147.5" y="455" as="sourcePoint" />
            <mxPoint x="1197.5" y="405" as="targetPoint" />
          </mxGeometry>
        </mxCell>
        <mxCell id="8IT-xfEcom7HQ6RDg2mn-69" value="Platform" style="rounded=0;whiteSpace=wrap;html=1;" vertex="1" parent="1">
          <mxGeometry x="152.5" y="382.5" width="120" height="60" as="geometry" />
        </mxCell>
        <mxCell id="8IT-xfEcom7HQ6RDg2mn-70" value="&lt;u&gt;platform_id&lt;/u&gt;" style="ellipse;whiteSpace=wrap;html=1;" vertex="1" parent="1">
          <mxGeometry x="265" y="297.5" width="75" height="50" as="geometry" />
        </mxCell>
        <mxCell id="8IT-xfEcom7HQ6RDg2mn-71" value="" style="endArrow=none;html=1;rounded=0;entryX=0.5;entryY=1;entryDx=0;entryDy=0;exitX=0.75;exitY=0;exitDx=0;exitDy=0;" edge="1" parent="1" source="8IT-xfEcom7HQ6RDg2mn-69" target="8IT-xfEcom7HQ6RDg2mn-70">
          <mxGeometry width="50" height="50" relative="1" as="geometry">
            <mxPoint x="135" y="392.5" as="sourcePoint" />
            <mxPoint x="275" y="432.5" as="targetPoint" />
          </mxGeometry>
        </mxCell>
        <mxCell id="8IT-xfEcom7HQ6RDg2mn-72" value="name" style="ellipse;whiteSpace=wrap;html=1;" vertex="1" parent="1">
          <mxGeometry x="92.5" y="297.5" width="75" height="50" as="geometry" />
        </mxCell>
        <mxCell id="8IT-xfEcom7HQ6RDg2mn-73" value="website" style="ellipse;whiteSpace=wrap;html=1;" vertex="1" parent="1">
          <mxGeometry x="175" y="297.5" width="75" height="50" as="geometry" />
        </mxCell>
        <mxCell id="8IT-xfEcom7HQ6RDg2mn-74" value="" style="endArrow=none;html=1;rounded=0;entryX=0.5;entryY=1;entryDx=0;entryDy=0;exitX=0.333;exitY=0;exitDx=0;exitDy=0;exitPerimeter=0;" edge="1" parent="1" source="8IT-xfEcom7HQ6RDg2mn-69" target="8IT-xfEcom7HQ6RDg2mn-72">
          <mxGeometry width="50" height="50" relative="1" as="geometry">
            <mxPoint x="175" y="402.5" as="sourcePoint" />
            <mxPoint x="225" y="352.5" as="targetPoint" />
          </mxGeometry>
        </mxCell>
        <mxCell id="8IT-xfEcom7HQ6RDg2mn-75" value="" style="endArrow=none;html=1;rounded=0;entryX=0.5;entryY=1;entryDx=0;entryDy=0;exitX=0.5;exitY=0;exitDx=0;exitDy=0;" edge="1" parent="1" source="8IT-xfEcom7HQ6RDg2mn-69" target="8IT-xfEcom7HQ6RDg2mn-73">
          <mxGeometry width="50" height="50" relative="1" as="geometry">
            <mxPoint x="175" y="403.5" as="sourcePoint" />
            <mxPoint x="205.9834957055033" y="326.1776695296645" as="targetPoint" />
          </mxGeometry>
        </mxCell>
        <mxCell id="8IT-xfEcom7HQ6RDg2mn-77" value="num_of_delivers" style="ellipse;whiteSpace=wrap;html=1;" vertex="1" parent="1">
          <mxGeometry y="387.5" width="115" height="50" as="geometry" />
        </mxCell>
        <mxCell id="8IT-xfEcom7HQ6RDg2mn-78" value="" style="endArrow=none;html=1;rounded=0;entryX=0;entryY=0.5;entryDx=0;entryDy=0;" edge="1" parent="1" source="8IT-xfEcom7HQ6RDg2mn-77" target="8IT-xfEcom7HQ6RDg2mn-69">
          <mxGeometry width="50" height="50" relative="1" as="geometry">
            <mxPoint x="125" y="492.5" as="sourcePoint" />
            <mxPoint x="175" y="442.5" as="targetPoint" />
          </mxGeometry>
        </mxCell>
        <mxCell id="8IT-xfEcom7HQ6RDg2mn-87" value="Order" style="rounded=0;whiteSpace=wrap;html=1;" vertex="1" parent="1">
          <mxGeometry x="622.5" y="885" width="120" height="60" as="geometry" />
        </mxCell>
        <mxCell id="8IT-xfEcom7HQ6RDg2mn-88" value="&lt;u&gt;platform_id&lt;/u&gt;" style="ellipse;whiteSpace=wrap;html=1;" vertex="1" parent="1">
          <mxGeometry x="730" y="980" width="75" height="50" as="geometry" />
        </mxCell>
        <mxCell id="8IT-xfEcom7HQ6RDg2mn-89" value="" style="endArrow=none;html=1;rounded=0;entryX=0;entryY=0;entryDx=0;entryDy=0;exitX=0.75;exitY=1;exitDx=0;exitDy=0;" edge="1" parent="1" source="8IT-xfEcom7HQ6RDg2mn-87" target="8IT-xfEcom7HQ6RDg2mn-88">
          <mxGeometry width="50" height="50" relative="1" as="geometry">
            <mxPoint x="605" y="895" as="sourcePoint" />
            <mxPoint x="745" y="935" as="targetPoint" />
          </mxGeometry>
        </mxCell>
        <mxCell id="8IT-xfEcom7HQ6RDg2mn-90" value="name" style="ellipse;whiteSpace=wrap;html=1;" vertex="1" parent="1">
          <mxGeometry x="560" y="980" width="75" height="50" as="geometry" />
        </mxCell>
        <mxCell id="8IT-xfEcom7HQ6RDg2mn-91" value="website" style="ellipse;whiteSpace=wrap;html=1;" vertex="1" parent="1">
          <mxGeometry x="645" y="990" width="75" height="50" as="geometry" />
        </mxCell>
        <mxCell id="8IT-xfEcom7HQ6RDg2mn-92" value="" style="endArrow=none;html=1;rounded=0;entryX=0.5;entryY=0;entryDx=0;entryDy=0;exitX=0.25;exitY=1;exitDx=0;exitDy=0;" edge="1" parent="1" source="8IT-xfEcom7HQ6RDg2mn-87" target="8IT-xfEcom7HQ6RDg2mn-90">
          <mxGeometry width="50" height="50" relative="1" as="geometry">
            <mxPoint x="645" y="905" as="sourcePoint" />
            <mxPoint x="695" y="855" as="targetPoint" />
          </mxGeometry>
        </mxCell>
        <mxCell id="8IT-xfEcom7HQ6RDg2mn-93" value="" style="endArrow=none;html=1;rounded=0;entryX=0.5;entryY=0;entryDx=0;entryDy=0;exitX=0.5;exitY=1;exitDx=0;exitDy=0;" edge="1" parent="1" source="8IT-xfEcom7HQ6RDg2mn-87" target="8IT-xfEcom7HQ6RDg2mn-91">
          <mxGeometry width="50" height="50" relative="1" as="geometry">
            <mxPoint x="645" y="906" as="sourcePoint" />
            <mxPoint x="675.9834957055033" y="828.6776695296645" as="targetPoint" />
          </mxGeometry>
        </mxCell>
        <mxCell id="8IT-xfEcom7HQ6RDg2mn-94" value="num_of_delivers" style="ellipse;whiteSpace=wrap;html=1;" vertex="1" parent="1">
          <mxGeometry x="470" y="890" width="115" height="50" as="geometry" />
        </mxCell>
        <mxCell id="8IT-xfEcom7HQ6RDg2mn-95" value="" style="endArrow=none;html=1;rounded=0;entryX=0;entryY=0.5;entryDx=0;entryDy=0;" edge="1" parent="1" source="8IT-xfEcom7HQ6RDg2mn-94" target="8IT-xfEcom7HQ6RDg2mn-87">
          <mxGeometry width="50" height="50" relative="1" as="geometry">
            <mxPoint x="595" y="995" as="sourcePoint" />
            <mxPoint x="645" y="945" as="targetPoint" />
          </mxGeometry>
        </mxCell>
        <mxCell id="8IT-xfEcom7HQ6RDg2mn-96" value="FoodItem&lt;span style=&quot;caret-color: rgba(0, 0, 0, 0); color: rgba(0, 0, 0, 0); font-family: monospace; font-size: 0px; text-align: start; white-space: nowrap;&quot;&gt;%3CmxGraphModel%3E%3Croot%3E%3CmxCell%20id%3D%220%22%2F%3E%3CmxCell%20id%3D%221%22%20parent%3D%220%22%2F%3E%3CmxCell%20id%3D%222%22%20value%3D%22Platform%22%20style%3D%22rounded%3D0%3BwhiteSpace%3Dwrap%3Bhtml%3D1%3B%22%20vertex%3D%221%22%20parent%3D%221%22%3E%3CmxGeometry%20x%3D%22152.5%22%20y%3D%22382.5%22%20width%3D%22120%22%20height%3D%2260%22%20as%3D%22geometry%22%2F%3E%3C%2FmxCell%3E%3CmxCell%20id%3D%223%22%20value%3D%22%26lt%3Bu%26gt%3Bplatform_id%26lt%3B%2Fu%26gt%3B%22%20style%3D%22ellipse%3BwhiteSpace%3Dwrap%3Bhtml%3D1%3B%22%20vertex%3D%221%22%20parent%3D%221%22%3E%3CmxGeometry%20x%3D%22265%22%20y%3D%22297.5%22%20width%3D%2275%22%20height%3D%2250%22%20as%3D%22geometry%22%2F%3E%3C%2FmxCell%3E%3CmxCell%20id%3D%224%22%20value%3D%22%22%20style%3D%22endArrow%3Dnone%3Bhtml%3D1%3Brounded%3D0%3BentryX%3D0.5%3BentryY%3D1%3BentryDx%3D0%3BentryDy%3D0%3BexitX%3D0.75%3BexitY%3D0%3BexitDx%3D0%3BexitDy%3D0%3B%22%20edge%3D%221%22%20source%3D%222%22%20target%3D%223%22%20parent%3D%221%22%3E%3CmxGeometry%20width%3D%2250%22%20height%3D%2250%22%20relative%3D%221%22%20as%3D%22geometry%22%3E%3CmxPoint%20x%3D%22135%22%20y%3D%22392.5%22%20as%3D%22sourcePoint%22%2F%3E%3CmxPoint%20x%3D%22275%22%20y%3D%22432.5%22%20as%3D%22targetPoint%22%2F%3E%3C%2FmxGeometry%3E%3C%2FmxCell%3E%3CmxCell%20id%3D%225%22%20value%3D%22name%22%20style%3D%22ellipse%3BwhiteSpace%3Dwrap%3Bhtml%3D1%3B%22%20vertex%3D%221%22%20parent%3D%221%22%3E%3CmxGeometry%20x%3D%2292.5%22%20y%3D%22297.5%22%20width%3D%2275%22%20height%3D%2250%22%20as%3D%22geometry%22%2F%3E%3C%2FmxCell%3E%3CmxCell%20id%3D%226%22%20value%3D%22website%22%20style%3D%22ellipse%3BwhiteSpace%3Dwrap%3Bhtml%3D1%3B%22%20vertex%3D%221%22%20parent%3D%221%22%3E%3CmxGeometry%20x%3D%22175%22%20y%3D%22297.5%22%20width%3D%2275%22%20height%3D%2250%22%20as%3D%22geometry%22%2F%3E%3C%2FmxCell%3E%3CmxCell%20id%3D%227%22%20value%3D%22%22%20style%3D%22endArrow%3Dnone%3Bhtml%3D1%3Brounded%3D0%3BentryX%3D0.5%3BentryY%3D1%3BentryDx%3D0%3BentryDy%3D0%3BexitX%3D0.333%3BexitY%3D0%3BexitDx%3D0%3BexitDy%3D0%3BexitPerimeter%3D0%3B%22%20edge%3D%221%22%20source%3D%222%22%20target%3D%225%22%20parent%3D%221%22%3E%3CmxGeometry%20width%3D%2250%22%20height%3D%2250%22%20relative%3D%221%22%20as%3D%22geometry%22%3E%3CmxPoint%20x%3D%22175%22%20y%3D%22402.5%22%20as%3D%22sourcePoint%22%2F%3E%3CmxPoint%20x%3D%22225%22%20y%3D%22352.5%22%20as%3D%22targetPoint%22%2F%3E%3C%2FmxGeometry%3E%3C%2FmxCell%3E%3CmxCell%20id%3D%228%22%20value%3D%22%22%20style%3D%22endArrow%3Dnone%3Bhtml%3D1%3Brounded%3D0%3BentryX%3D0.5%3BentryY%3D1%3BentryDx%3D0%3BentryDy%3D0%3BexitX%3D0.5%3BexitY%3D0%3BexitDx%3D0%3BexitDy%3D0%3B%22%20edge%3D%221%22%20source%3D%222%22%20target%3D%226%22%20parent%3D%221%22%3E%3CmxGeometry%20width%3D%2250%22%20height%3D%2250%22%20relative%3D%221%22%20as%3D%22geometry%22%3E%3CmxPoint%20x%3D%22175%22%20y%3D%22403.5%22%20as%3D%22sourcePoint%22%2F%3E%3CmxPoint%20x%3D%22205.9834957055033%22%20y%3D%22326.1776695296645%22%20as%3D%22targetPoint%22%2F%3E%3C%2FmxGeometry%3E%3C%2FmxCell%3E%3CmxCell%20id%3D%229%22%20value%3D%22num_of_delivers%22%20style%3D%22ellipse%3BwhiteSpace%3Dwrap%3Bhtml%3D1%3B%22%20vertex%3D%221%22%20parent%3D%221%22%3E%3CmxGeometry%20y%3D%22387.5%22%20width%3D%22115%22%20height%3D%2250%22%20as%3D%22geometry%22%2F%3E%3C%2FmxCell%3E%3CmxCell%20id%3D%2210%22%20value%3D%22%22%20style%3D%22endArrow%3Dnone%3Bhtml%3D1%3Brounded%3D0%3BentryX%3D0%3BentryY%3D0.5%3BentryDx%3D0%3BentryDy%3D0%3B%22%20edge%3D%221%22%20source%3D%229%22%20target%3D%222%22%20parent%3D%221%22%3E%3CmxGeometry%20width%3D%2250%22%20height%3D%2250%22%20relative%3D%221%22%20as%3D%22geometry%22%3E%3CmxPoint%20x%3D%22125%22%20y%3D%22492.5%22%20as%3D%22sourcePoint%22%2F%3E%3CmxPoint%20x%3D%22175%22%20y%3D%22442.5%22%20as%3D%22targetPoint%22%2F%3E%3C%2FmxGeometry%3E%3C%2FmxCell%3E%3C%2Froot%3E%3C%2FmxGraphModel%3E&lt;/span&gt;" style="rounded=0;whiteSpace=wrap;html=1;" vertex="1" parent="1">
          <mxGeometry x="202.5" y="595" width="120" height="60" as="geometry" />
        </mxCell>
        <mxCell id="8IT-xfEcom7HQ6RDg2mn-97" value="&lt;u&gt;food_id&lt;/u&gt;" style="ellipse;whiteSpace=wrap;html=1;" vertex="1" parent="1">
          <mxGeometry x="315" y="510" width="75" height="50" as="geometry" />
        </mxCell>
        <mxCell id="8IT-xfEcom7HQ6RDg2mn-98" value="" style="endArrow=none;html=1;rounded=0;entryX=0.5;entryY=1;entryDx=0;entryDy=0;exitX=0.75;exitY=0;exitDx=0;exitDy=0;" edge="1" parent="1" source="8IT-xfEcom7HQ6RDg2mn-96" target="8IT-xfEcom7HQ6RDg2mn-97">
          <mxGeometry width="50" height="50" relative="1" as="geometry">
            <mxPoint x="185" y="605" as="sourcePoint" />
            <mxPoint x="325" y="645" as="targetPoint" />
          </mxGeometry>
        </mxCell>
        <mxCell id="8IT-xfEcom7HQ6RDg2mn-99" value="name" style="ellipse;whiteSpace=wrap;html=1;" vertex="1" parent="1">
          <mxGeometry x="142.5" y="510" width="75" height="50" as="geometry" />
        </mxCell>
        <mxCell id="8IT-xfEcom7HQ6RDg2mn-100" value="price" style="ellipse;whiteSpace=wrap;html=1;" vertex="1" parent="1">
          <mxGeometry x="225" y="510" width="75" height="50" as="geometry" />
        </mxCell>
        <mxCell id="8IT-xfEcom7HQ6RDg2mn-101" value="" style="endArrow=none;html=1;rounded=0;entryX=0.5;entryY=1;entryDx=0;entryDy=0;exitX=0.333;exitY=0;exitDx=0;exitDy=0;exitPerimeter=0;" edge="1" parent="1" source="8IT-xfEcom7HQ6RDg2mn-96" target="8IT-xfEcom7HQ6RDg2mn-99">
          <mxGeometry width="50" height="50" relative="1" as="geometry">
            <mxPoint x="225" y="615" as="sourcePoint" />
            <mxPoint x="275" y="565" as="targetPoint" />
          </mxGeometry>
        </mxCell>
        <mxCell id="8IT-xfEcom7HQ6RDg2mn-102" value="" style="endArrow=none;html=1;rounded=0;entryX=0.5;entryY=1;entryDx=0;entryDy=0;exitX=0.5;exitY=0;exitDx=0;exitDy=0;" edge="1" parent="1" source="8IT-xfEcom7HQ6RDg2mn-96" target="8IT-xfEcom7HQ6RDg2mn-100">
          <mxGeometry width="50" height="50" relative="1" as="geometry">
            <mxPoint x="225" y="616" as="sourcePoint" />
            <mxPoint x="255.9834957055033" y="538.6776695296645" as="targetPoint" />
          </mxGeometry>
        </mxCell>
        <mxCell id="8IT-xfEcom7HQ6RDg2mn-103" value="restaurant_id" style="ellipse;whiteSpace=wrap;html=1;" vertex="1" parent="1">
          <mxGeometry x="50" y="600" width="115" height="50" as="geometry" />
        </mxCell>
        <mxCell id="8IT-xfEcom7HQ6RDg2mn-104" value="" style="endArrow=none;html=1;rounded=0;entryX=0;entryY=0.5;entryDx=0;entryDy=0;" edge="1" parent="1" source="8IT-xfEcom7HQ6RDg2mn-103" target="8IT-xfEcom7HQ6RDg2mn-96">
          <mxGeometry width="50" height="50" relative="1" as="geometry">
            <mxPoint x="175" y="705" as="sourcePoint" />
            <mxPoint x="225" y="655" as="targetPoint" />
          </mxGeometry>
        </mxCell>
        <mxCell id="8IT-xfEcom7HQ6RDg2mn-105" value="Chef" style="rounded=0;whiteSpace=wrap;html=1;" vertex="1" parent="1">
          <mxGeometry x="932.5" y="695" width="120" height="60" as="geometry" />
        </mxCell>
        <mxCell id="8IT-xfEcom7HQ6RDg2mn-106" value="&lt;u&gt;chef_id&lt;/u&gt;" style="ellipse;whiteSpace=wrap;html=1;" vertex="1" parent="1">
          <mxGeometry x="1052.5" y="610" width="75" height="50" as="geometry" />
        </mxCell>
        <mxCell id="8IT-xfEcom7HQ6RDg2mn-107" value="" style="endArrow=none;html=1;rounded=0;entryX=0.5;entryY=1;entryDx=0;entryDy=0;exitX=0.75;exitY=0;exitDx=0;exitDy=0;" edge="1" parent="1" source="8IT-xfEcom7HQ6RDg2mn-105" target="8IT-xfEcom7HQ6RDg2mn-106">
          <mxGeometry width="50" height="50" relative="1" as="geometry">
            <mxPoint x="915" y="705" as="sourcePoint" />
            <mxPoint x="1055" y="745" as="targetPoint" />
          </mxGeometry>
        </mxCell>
        <mxCell id="8IT-xfEcom7HQ6RDg2mn-108" value="name" style="ellipse;whiteSpace=wrap;html=1;" vertex="1" parent="1">
          <mxGeometry x="840" y="610" width="75" height="50" as="geometry" />
        </mxCell>
        <mxCell id="8IT-xfEcom7HQ6RDg2mn-109" value="phone_number" style="ellipse;whiteSpace=wrap;html=1;" vertex="1" parent="1">
          <mxGeometry x="941.25" y="610" width="102.5" height="50" as="geometry" />
        </mxCell>
        <mxCell id="8IT-xfEcom7HQ6RDg2mn-110" value="" style="endArrow=none;html=1;rounded=0;entryX=0.5;entryY=1;entryDx=0;entryDy=0;exitX=0.333;exitY=0;exitDx=0;exitDy=0;exitPerimeter=0;" edge="1" parent="1" source="8IT-xfEcom7HQ6RDg2mn-105" target="8IT-xfEcom7HQ6RDg2mn-108">
          <mxGeometry width="50" height="50" relative="1" as="geometry">
            <mxPoint x="955" y="715" as="sourcePoint" />
            <mxPoint x="1005" y="665" as="targetPoint" />
          </mxGeometry>
        </mxCell>
        <mxCell id="8IT-xfEcom7HQ6RDg2mn-111" value="" style="endArrow=none;html=1;rounded=0;entryX=0.5;entryY=1;entryDx=0;entryDy=0;exitX=0.5;exitY=0;exitDx=0;exitDy=0;" edge="1" parent="1" source="8IT-xfEcom7HQ6RDg2mn-105" target="8IT-xfEcom7HQ6RDg2mn-109">
          <mxGeometry width="50" height="50" relative="1" as="geometry">
            <mxPoint x="955" y="716" as="sourcePoint" />
            <mxPoint x="985.9834957055033" y="638.6776695296645" as="targetPoint" />
          </mxGeometry>
        </mxCell>
        <mxCell id="8IT-xfEcom7HQ6RDg2mn-112" value="restaurant_id" style="ellipse;whiteSpace=wrap;html=1;" vertex="1" parent="1">
          <mxGeometry x="1077.5" y="700" width="115" height="50" as="geometry" />
        </mxCell>
        <mxCell id="8IT-xfEcom7HQ6RDg2mn-113" value="" style="endArrow=none;html=1;rounded=0;entryX=1;entryY=0.5;entryDx=0;entryDy=0;" edge="1" parent="1" source="8IT-xfEcom7HQ6RDg2mn-112" target="8IT-xfEcom7HQ6RDg2mn-105">
          <mxGeometry width="50" height="50" relative="1" as="geometry">
            <mxPoint x="905" y="805" as="sourcePoint" />
            <mxPoint x="955" y="755" as="targetPoint" />
          </mxGeometry>
        </mxCell>
        <mxCell id="8IT-xfEcom7HQ6RDg2mn-114" value="" style="endArrow=none;html=1;rounded=0;entryX=0.25;entryY=1;entryDx=0;entryDy=0;exitX=1;exitY=0;exitDx=0;exitDy=0;" edge="1" parent="1" source="8IT-xfEcom7HQ6RDg2mn-116" target="8IT-xfEcom7HQ6RDg2mn-96">
          <mxGeometry width="50" height="50" relative="1" as="geometry">
            <mxPoint x="185" y="690" as="sourcePoint" />
            <mxPoint x="355" y="640" as="targetPoint" />
          </mxGeometry>
        </mxCell>
        <mxCell id="8IT-xfEcom7HQ6RDg2mn-116" value="available_state" style="ellipse;whiteSpace=wrap;html=1;" vertex="1" parent="1">
          <mxGeometry x="105" y="670" width="87.5" height="50" as="geometry" />
        </mxCell>
        <mxCell id="8IT-xfEcom7HQ6RDg2mn-117" value="" style="endArrow=none;html=1;rounded=0;exitX=0.5;exitY=1;exitDx=0;exitDy=0;entryX=0.5;entryY=0;entryDx=0;entryDy=0;" edge="1" parent="1" source="8IT-xfEcom7HQ6RDg2mn-96" target="8IT-xfEcom7HQ6RDg2mn-118">
          <mxGeometry width="50" height="50" relative="1" as="geometry">
            <mxPoint x="265" y="680" as="sourcePoint" />
            <mxPoint x="263" y="700" as="targetPoint" />
          </mxGeometry>
        </mxCell>
        <mxCell id="8IT-xfEcom7HQ6RDg2mn-118" value="description" style="ellipse;whiteSpace=wrap;html=1;" vertex="1" parent="1">
          <mxGeometry x="215" y="710" width="95" height="50" as="geometry" />
        </mxCell>
        <mxCell id="8IT-xfEcom7HQ6RDg2mn-119" value="" style="endArrow=none;html=1;rounded=0;entryX=0.5;entryY=1;entryDx=0;entryDy=0;exitX=1;exitY=0.5;exitDx=0;exitDy=0;" edge="1" parent="1" source="8IT-xfEcom7HQ6RDg2mn-120" target="8IT-xfEcom7HQ6RDg2mn-118">
          <mxGeometry width="50" height="50" relative="1" as="geometry">
            <mxPoint x="215" y="800" as="sourcePoint" />
            <mxPoint x="315" y="760" as="targetPoint" />
          </mxGeometry>
        </mxCell>
        <mxCell id="8IT-xfEcom7HQ6RDg2mn-120" value="ingredients&amp;nbsp;" style="ellipse;shape=doubleEllipse;whiteSpace=wrap;html=1;" vertex="1" parent="1">
          <mxGeometry x="105" y="760" width="85" height="50" as="geometry" />
        </mxCell>
        <mxCell id="8IT-xfEcom7HQ6RDg2mn-121" value="" style="endArrow=none;html=1;rounded=0;entryX=0.5;entryY=1;entryDx=0;entryDy=0;exitX=0.5;exitY=0;exitDx=0;exitDy=0;" edge="1" parent="1" source="8IT-xfEcom7HQ6RDg2mn-122" target="8IT-xfEcom7HQ6RDg2mn-118">
          <mxGeometry width="50" height="50" relative="1" as="geometry">
            <mxPoint x="265" y="790" as="sourcePoint" />
            <mxPoint x="315" y="760" as="targetPoint" />
          </mxGeometry>
        </mxCell>
        <mxCell id="8IT-xfEcom7HQ6RDg2mn-122" value="calories" style="ellipse;whiteSpace=wrap;html=1;" vertex="1" parent="1">
          <mxGeometry x="227.5" y="790" width="70" height="50" as="geometry" />
        </mxCell>
        <mxCell id="8IT-xfEcom7HQ6RDg2mn-123" value="" style="endArrow=none;html=1;rounded=0;entryX=0;entryY=0;entryDx=0;entryDy=0;" edge="1" parent="1" target="8IT-xfEcom7HQ6RDg2mn-124">
          <mxGeometry width="50" height="50" relative="1" as="geometry">
            <mxPoint x="265" y="760" as="sourcePoint" />
            <mxPoint x="335" y="790" as="targetPoint" />
          </mxGeometry>
        </mxCell>
        <mxCell id="8IT-xfEcom7HQ6RDg2mn-124" value="preparation_time" style="ellipse;whiteSpace=wrap;html=1;" vertex="1" parent="1">
          <mxGeometry x="322.5" y="780" width="102.5" height="50" as="geometry" />
        </mxCell>
        <mxCell id="8IT-xfEcom7HQ6RDg2mn-128" style="edgeStyle=orthogonalEdgeStyle;rounded=0;orthogonalLoop=1;jettySize=auto;html=1;entryX=1;entryY=0.5;entryDx=0;entryDy=0;shape=link;" edge="1" parent="1" source="8IT-xfEcom7HQ6RDg2mn-126" target="8IT-xfEcom7HQ6RDg2mn-1">
          <mxGeometry relative="1" as="geometry" />
        </mxCell>
        <mxCell id="8IT-xfEcom7HQ6RDg2mn-126" value="&lt;font style=&quot;font-size: 17px;&quot;&gt;hires&lt;/font&gt;" style="html=1;whiteSpace=wrap;aspect=fixed;shape=isoRectangle;" vertex="1" parent="1">
          <mxGeometry x="560" y="135" width="116.67" height="70" as="geometry" />
        </mxCell>
      </root>
    </mxGraphModel>
  </diagram>
</mxfile>
